<?xml version="1.0" standalone="no"?>
<!DOCTYPE svg PUBLIC "-//W3C//DTD SVG 20010904//EN"
 "http://www.w3.org/TR/2001/REC-SVG-20010904/DTD/svg10.dtd">
<svg version="1.0" xmlns="http://www.w3.org/2000/svg"
 width="260.000000pt" height="260.000000pt" viewBox="0 0 260.000000 260.000000"
 preserveAspectRatio="xMidYMid meet">
<metadata>
Created by potrace 1.11, written by Peter Selinger 2001-2013
</metadata>
<g transform="translate(0.000000,260.000000) scale(0.100000,-0.100000)"
fill="#000000" stroke="none">
<path d="M0 1300 l0 -1300 1300 0 1300 0 0 1300 0 1300 -1300 0 -1300 0 0
-1300z m1120 650 c82 -24 213 -84 231 -106 9 -11 0 -35 -43 -112 -30 -53 -77
-136 -104 -184 -27 -48 -52 -88 -56 -88 -4 0 -23 11 -43 24 -51 35 -151 66
-210 66 -72 0 -136 -24 -191 -73 -187 -165 -81 -451 176 -474 72 -7 178 23
238 67 23 16 46 30 50 30 5 0 55 -82 111 -182 78 -137 101 -186 94 -197 -17
-27 -144 -89 -238 -116 -228 -66 -490 -32 -672 86 -89 59 -173 154 -222 252
-54 111 -71 187 -71 333 0 218 54 358 195 500 67 68 96 89 175 127 132 64 204
78 370 73 100 -3 155 -10 210 -26z m965 -15 c91 -19 185 -66 226 -112 17 -21
44 -62 58 -93 21 -46 25 -69 25 -145 0 -94 -16 -148 -65 -216 l-22 -31 36 -29
c50 -41 104 -152 112 -231 24 -224 -111 -409 -333 -457 -33 -7 -174 -11 -377
-11 l-325 0 0 670 0 670 298 0 c223 0 314 -4 367 -15z"/>
<path d="M751 1765 c-170 -48 -307 -181 -355 -344 -23 -79 -21 -222 4 -304 68
-221 285 -360 535 -344 86 6 205 42 205 63 0 25 -21 25 -78 3 -79 -32 -259
-32 -343 -2 -148 54 -246 160 -285 308 -16 59 -18 192 -3 254 38 165 175 296
348 332 70 14 221 6 280 -15 36 -13 46 -14 53 -4 13 21 10 24 -44 43 -73 24
-246 30 -317 10z"/>
<path d="M1620 1274 l0 -507 193 6 c269 8 340 34 401 147 24 45 29 66 30 124
0 76 -12 108 -60 165 -27 32 -111 81 -139 81 -23 0 -18 17 8 24 36 9 103 72
126 119 23 48 27 119 10 180 -14 53 -69 110 -132 138 -47 21 -69 24 -244 27
l-193 4 0 -508z m397 454 c187 -47 187 -349 0 -396 -25 -7 -114 -12 -196 -12
l-151 0 0 210 0 210 151 0 c82 0 171 -5 196 -12z m66 -482 c86 -42 117 -94
117 -196 0 -182 -96 -240 -398 -240 l-132 0 0 236 0 236 178 -4 c171 -3 179
-4 235 -32z"/>
<path d="M1840 1539 l0 -92 45 6 c62 6 85 29 85 82 0 53 -16 74 -65 85 -67 16
-65 19 -65 -81z"/>
<path d="M1840 1040 l0 -110 48 0 c66 0 114 27 131 76 28 80 -31 144 -133 144
l-46 0 0 -110z"/>
</g>
</svg>
